M48
; DRILL file {KiCad (6.99.0-1585-g9fcc641808)} date Fri Apr 15 11:00:39 2022
; FORMAT={-:-/ absolute / inch / decimal}
; #@! TF.CreationDate,2022-04-15T11:00:39+08:00
; #@! TF.GenerationSoftware,Kicad,Pcbnew,(6.99.0-1585-g9fcc641808)
; #@! TF.FileFunction,Plated,1,4,PTH
FMAT,2
INCH
; #@! TA.AperFunction,Plated,PTH,ViaDrill
T1C0.0079
; #@! TA.AperFunction,Plated,PTH,ViaDrill
T2C0.0098
; #@! TA.AperFunction,Plated,PTH,ViaDrill
T3C0.0118
; #@! TA.AperFunction,Plated,PTH,ComponentDrill
T4C0.0197
; #@! TA.AperFunction,Plated,PTH,ComponentDrill
T5C0.0315
; #@! TA.AperFunction,Plated,PTH,ComponentDrill
T6C0.0350
; #@! TA.AperFunction,Plated,PTH,ComponentDrill
T7C0.0374
; #@! TA.AperFunction,Plated,PTH,ComponentDrill
T8C0.0394
; #@! TA.AperFunction,Plated,PTH,ComponentDrill
T9C0.0512
; #@! TA.AperFunction,Plated,PTH,ComponentDrill
T10C0.0618
; #@! TA.AperFunction,Plated,PTH,ComponentDrill
T11C0.0630
; #@! TA.AperFunction,Plated,PTH,ComponentDrill
T12C0.0906
; #@! TA.AperFunction,Plated,PTH,ComponentDrill
T13C0.1260
%
G90
G05
T1
X3.4109Y-3.9547
X3.4109Y-4.7126
X3.4693Y-3.1819
X3.4976Y-3.2028
X3.5626Y-2.9461
X3.5979Y-3.84
X3.8183Y-3.4097
X3.9866Y-4.0663
X4.0179Y-5.6754
X4.0545Y-5.1722
X4.0575Y-5.0438
X4.0643Y-4.6869
X4.0713Y-5.6735
X4.083Y-5.0564
X4.0988Y-4.6958
X4.0988Y-5.0789
X4.1169Y-5.1743
X4.1281Y-5.0569
X4.1314Y-4.6729
X4.132Y-5.6879
X4.1361Y-5.0438
X4.1539Y-5.0432
X4.1571Y-4.7018
X4.1572Y-5.2291
X4.1837Y-5.3587
X4.1894Y-5.5401
X4.1928Y-4.7194
X4.2091Y-5.109
X4.2228Y-5.0749
X4.2338Y-4.7197
X4.2616Y-3.2294
X4.2616Y-4.1089
X4.2681Y-5.6735
X4.2767Y-3.3235
X4.2852Y-2.8375
X4.2867Y-4.734
X4.2884Y-4.751
X4.2905Y-4.1371
X4.2927Y-4.203
X4.2932Y-5.7443
X4.2949Y-4.6974
X4.3015Y-5.1191
X4.302Y-4.8953
X4.3021Y-4.8478
X4.3022Y-4.8653
X4.3025Y-4.9215
X4.3026Y-4.9366
X4.3058Y-3.8165
X4.3058Y-4.3286
X4.3086Y-5.3587
X4.3172Y-4.8988
X4.3187Y-4.1408
X4.319Y-4.0403
X4.319Y-3.9147
X4.3193Y-4.2665
X4.325Y-3.8565
X4.3251Y-3.9488
X4.3338Y-4.9238
X4.3417Y-2.8714
X4.3433Y-3.7289
X4.3443Y-4.7821
X4.3475Y-4.1689
X4.3525Y-4.0375
X4.3538Y-3.9108
X4.3554Y-3.8446
X4.3557Y-4.2603
X4.3557Y-4.3129
X4.356Y-4.0861
X4.3571Y-4.1375
X4.3603Y-3.9651
X4.3712Y-4.2169
X4.3754Y-3.7654
X4.377Y-2.5102
X4.3785Y-4.2033
X4.3792Y-3.7503
X4.3799Y-5.3587
X4.3811Y-4.0792
X4.3817Y-4.1737
X4.3832Y-3.4272
X4.3854Y-4.802
X4.3902Y-5.6638
X4.3949Y-3.7457
X4.3964Y-2.3171
X4.3966Y-4.1385
X4.3975Y-4.0487
X4.3975Y-3.9927
X4.4006Y-3.903
X4.4029Y-2.5338
X4.4029Y-2.3487
X4.4031Y-2.419
X4.4085Y-3.0776
X4.4123Y-2.547
X4.4125Y-4.1091
X4.4175Y-3.9939
X4.4194Y-3.7287
X4.424Y-3.9391
X4.4256Y-5.3587
X4.4256Y-5.6534
X4.4306Y-3.8461
X4.4334Y-4.1879
X4.4364Y-3.8898
X4.4419Y-2.5731
X4.4442Y-3.7356
X4.4449Y-4.3093
X4.4453Y-4.2758
X4.4458Y-4.1964
X4.4478Y-3.7921
X4.4482Y-4.2308
X4.4489Y-3.9161
X4.4506Y-4.1405
X4.4507Y-4.0775
X4.4764Y-4.2312
X4.4767Y-3.9518
X4.4782Y-3.9161
X4.4786Y-4.0761
X4.4788Y-4.1963
X4.4818Y-3.8882
X4.4825Y-5.4123
X4.4885Y-4.4541
X4.4974Y-4.3291
X4.5076Y-3.8569
X4.5119Y-4.1376
X4.5408Y-2.9244
X4.5537Y-3.9258
X4.5548Y-4.0805
X4.564Y-4.732
X4.5709Y-3.8664
X4.5863Y-3.8726
X4.5886Y-5.3178
X4.6714Y-5.1996
X4.6985Y-4.4836
X4.7031Y-4.7693
X4.7455Y-3.5899
X4.7667Y-2.2184
X4.782Y-4.1963
X4.7826Y-4.7789
X4.7835Y-3.7614
X4.7869Y-3.7862
X4.7898Y-3.9383
X4.7917Y-3.7485
X4.8018Y-3.7821
X4.8098Y-4.5288
X4.8157Y-4.4843
X4.8198Y-3.498
X4.836Y-2.1853
X4.8381Y-3.8602
X4.8386Y-3.2086
X4.8388Y-3.7731
X4.8402Y-4.5337
X4.844Y-4.045
X4.8453Y-5.5058
X4.8472Y-4.4843
X4.8533Y-2.2112
X4.8615Y-3.6887
X4.8663Y-5.1764
X4.8699Y-4.6476
X4.8704Y-3.4439
X4.8709Y-3.8273
X4.8716Y-3.0189
X4.8728Y-3.6336
X4.8798Y-2.187
X4.8814Y-4.2354
X4.8854Y-3.0317
X4.8876Y-5.506
X4.8881Y-3.7938
X4.8989Y-3.5331
X4.9031Y-2.9812
X4.9031Y-3.5014
X4.912Y-5.5062
X4.9159Y-2.9242
X4.9181Y-4.1631
X4.9228Y-4.5212
X4.9304Y-3.0495
X4.9311Y-3.7877
X4.9324Y-3.8574
X4.9325Y-2.9614
X4.9337Y-3.9201
X4.9355Y-4.3959
X4.9356Y-4.4845
X4.9389Y-4.0407
X4.94Y-2.0745
X4.9411Y-4.358
X4.9416Y-5.506
X4.9417Y-3.9365
X4.9435Y-4.0144
X4.9452Y-3.9514
X4.9456Y-4.5437
X4.9461Y-2.9289
X4.9486Y-3.4073
X4.95Y-3.0427
X4.9527Y-3.6258
X4.9533Y-3.5713
X4.9576Y-3.4964
X4.9612Y-5.506
X4.965Y-3.4638
X4.9661Y-3.0442
X4.967Y-4.4844
X4.9673Y-3.4439
X4.9676Y-4.3743
X4.9693Y-3.8601
X4.9724Y-4.394
X4.9735Y-3.9178
X4.9776Y-4.0664
X4.9791Y-3.7839
X4.9792Y-3.1135
X4.9829Y-4.2489
X4.9833Y-2.6205
X4.9847Y-5.0712
X4.9891Y-4.1631
X4.9937Y-3.5205
X4.9977Y-2.9609
X4.9984Y-3.9769
X4.9987Y-5.0298
X4.9988Y-3.4444
X5.0013Y-3.9263
X5.0014Y-3.9465
X5.0037Y-3.8261
X5.0042Y-3.4983
X5.0054Y-5.506
X5.0066Y-3.7042
X5.0112Y-3.4663
X5.0133Y-2.9951
X5.0137Y-3.7291
X5.0144Y-3.4875
X5.0161Y-3.1197
X5.0188Y-3.085
X5.0215Y-5.1963
X5.0226Y-4.0121
X5.0244Y-3.4441
X5.0252Y-5.5059
X5.0272Y-4.3929
X5.028Y-3.1651
X5.0285Y-3.8588
X5.0308Y-4.3112
X5.0309Y-3.9992
X5.0347Y-4.4856
X5.0356Y-4.4271
X5.0356Y-3.6626
X5.0361Y-3.9236
X5.0428Y-3.0442
X5.0438Y-3.6419
X5.0439Y-3.538
X5.0439Y-3.5703
X5.0488Y-3.7924
X5.0532Y-3.6998
X5.0578Y-4.5672
X5.0579Y-3.7205
X5.0588Y-3.8569
X5.0594Y-5.506
X5.0629Y-2.963
X5.0645Y-4.3986
X5.0658Y-4.5119
X5.067Y-3.345
X5.0679Y-3.733
X5.0716Y-3.9439
X5.0749Y-3.9784
X5.0763Y-2.9272
X5.0767Y-3.0829
X5.0778Y-3.9155
X5.0786Y-2.9893
X5.0787Y-3.0342
X5.0804Y-4.7355
X5.0894Y-3.8254
X5.0906Y-3.9247
X5.0914Y-3.9076
X5.0924Y-4.0801
X5.0955Y-3.8626
X5.0961Y-2.9858
X5.0972Y-4.72
X5.0979Y-3.1507
X5.0997Y-4.0171
X5.1058Y-3.4386
X5.1067Y-3.2294
X5.1079Y-3.0791
X5.1094Y-3.7538
X5.1095Y-3.5357
X5.1143Y-3.7763
X5.1188Y-3.658
X5.1193Y-5.2256
X5.1198Y-3.3359
X5.1219Y-3.858
X5.1236Y-2.9628
X5.1243Y-3.7082
X5.1268Y-3.9548
X5.1289Y-4.0821
X5.1292Y-4.4856
X5.1324Y-3.3443
X5.1373Y-3.439
X5.1414Y-3.1717
X5.1417Y-2.8665
X5.1494Y-3.5321
X5.1525Y-3.7713
X5.1531Y-3.4443
X5.1559Y-3.8921
X5.1568Y-3.9488
X5.1577Y-2.9625
X5.1584Y-3.8629
X5.1621Y-4.0495
X5.1652Y-3.6319
X5.1688Y-3.601
X5.1717Y-3.0891
X5.1717Y-3.0442
X5.1729Y-3.5059
X5.174Y-4.3455
X5.1742Y-3.8209
X5.1769Y-3.9054
X5.1819Y-3.7961
X5.1869Y-3.4445
X5.1873Y-3.9861
X5.1883Y-3.9353
X5.1885Y-4.1427
X5.1911Y-3.9199
X5.1937Y-3.9502
X5.1988Y-2.963
X5.2011Y-3.7405
X5.2062Y-3.4889
X5.2074Y-3.3496
X5.2078Y-3.5164
X5.2078Y-3.5349
X5.2193Y-4.0115
X5.2201Y-4.0482
X5.2212Y-4.0795
X5.222Y-4.5302
X5.2226Y-4.1101
X5.2233Y-3.8878
X5.2243Y-3.7892
X5.2248Y-3.9806
X5.2271Y-3.0486
X5.2274Y-3.71
X5.2304Y-5.2611
X5.2305Y-2.328
X5.2309Y-2.1996
X5.2309Y-3.6551
X5.231Y-3.1588
X5.2311Y-3.5981
X5.2327Y-3.5308
X5.2334Y-2.963
X5.2348Y-3.4379
X5.2359Y-3.7491
X5.2362Y-3.7716
X5.2388Y-3.5701
X5.2394Y-3.0846
X5.2417Y-3.4681
X5.242Y-3.0504
X5.2487Y-3.4456
X5.2492Y-3.7947
X5.2494Y-3.8595
X5.2495Y-2.9636
X5.2518Y-3.5148
X5.2541Y-3.9862
X5.2553Y-3.8945
X5.2622Y-2.0872
X5.2631Y-3.6323
X5.264Y-3.5652
X5.2659Y-3.5992
X5.2723Y-3.7071
X5.2738Y-3.9158
X5.2747Y-3.6612
X5.2786Y-3.8238
X5.2791Y-3.9768
X5.2804Y-2.963
X5.2814Y-2.0807
X5.2818Y-4.2355
X5.2818Y-4.3579
X5.2845Y-3.859
X5.285Y-4.1094
X5.2877Y-2.3252
X5.2881Y-3.16
X5.2936Y-3.0536
X5.2938Y-2.9242
X5.2941Y-3.0874
X5.2954Y-3.2349
X5.296Y-3.1735
X5.2961Y-3.4076
X5.3012Y-2.509
X5.3125Y-2.963
X5.3133Y-3.4443
X5.3143Y-3.8615
X5.3168Y-4.4815
X5.3172Y-3.4644
X5.3201Y-2.1993
X5.3212Y-2.3928
X5.3212Y-2.2357
X5.3222Y-2.4265
X5.3281Y-3.442
X5.3283Y-2.9211
X5.3289Y-2.9832
X5.3344Y-3.38
X5.338Y-3.7655
X5.3381Y-4.008
X5.3456Y-3.79
X5.3466Y-3.8936
X5.3472Y-3.5107
X5.3472Y-3.4827
X5.348Y-4.2036
X5.348Y-4.4222
X5.3519Y-4.2365
X5.3546Y-4.2559
X5.3547Y-3.3218
X5.3581Y-2.0374
X5.3593Y-3.2637
X5.3616Y-3.0481
X5.3618Y-2.9151
X5.3646Y-3.8062
X5.3661Y-4.1504
X5.3694Y-3.3281
X5.373Y-3.4461
X5.3739Y-3.8227
X5.3746Y-3.89
X5.3763Y-4.0173
X5.3763Y-3.8545
X5.3768Y-4.2319
X5.3791Y-4.3243
X5.3795Y-4.2669
X5.38Y-3.5765
X5.3808Y-4.0417
X5.3849Y-4.4879
X5.3865Y-3.9449
X5.39Y-3.6011
X5.3923Y-4.16
X5.3973Y-4.387
X5.4003Y-4.2634
X5.4042Y-2.8334
X5.4083Y-4.0806
X5.4093Y-4.33
X5.4096Y-4.0432
X5.4097Y-4.6312
X5.4118Y-3.8522
X5.4125Y-4.2049
X5.4142Y-4.2377
X5.4144Y-3.9491
X5.4144Y-2.9382
X5.4152Y-3.7849
X5.4156Y-2.9707
X5.4189Y-4.17
X5.4234Y-3.7706
X5.4257Y-3.0806
X5.4299Y-3.0357
X5.4361Y-3.7397
X5.4374Y-4.2665
X5.4387Y-3.3657
X5.4393Y-4.2391
X5.4421Y-4.2052
X5.4425Y-3.7796
X5.4428Y-4.17
X5.4428Y-4.0751
X5.4449Y-3.6107
X5.4462Y-3.1016
X5.4534Y-3.7053
X5.4582Y-3.7841
X5.4678Y-3.952
X5.4725Y-3.0492
X5.474Y-3.8887
X5.4793Y-4.0153
X5.4827Y-3.758
X5.4898Y-3.5971
X5.4985Y-3.302
X5.5014Y-3.9524
X5.5025Y-3.9187
X5.5026Y-4.3616
X5.5045Y-4.4884
X5.5058Y-4.3265
X5.5066Y-4.0144
X5.5078Y-2.9011
X5.5104Y-3.969
X5.5152Y-4.4484
X5.5157Y-4.2542
X5.5178Y-4.7863
X5.5187Y-2.5263
X5.5199Y-4.0575
X5.5204Y-3.2514
X5.5212Y-4.3432
X5.5223Y-4.2394
X5.5315Y-3.5971
X5.5326Y-4.2054
X5.5341Y-4.332
X5.5371Y-4.4584
X5.5463Y-3.9692
X5.5469Y-4.5632
X5.5474Y-4.0349
X5.5494Y-4.3216
X5.5503Y-2.7032
X5.5574Y-3.9194
X5.561Y-4.4767
X5.5627Y-2.7733
X5.569Y-4.4073
X5.5702Y-4.45
X5.5756Y-3.9373
X5.5758Y-3.7085
X5.5759Y-4.2185
X5.5766Y-3.411
X5.5794Y-4.3549
X5.5851Y-3.8758
X5.5869Y-4.1879
X5.591Y-4.6387
X5.5921Y-4.2487
X5.5927Y-4.1012
X5.5928Y-2.9956
X5.593Y-4.0281
X5.5996Y-4.7498
X5.6008Y-4.4308
X5.6069Y-4.2255
X5.6076Y-2.8144
X5.6113Y-3.9107
X5.6117Y-4.645
X5.6128Y-4.2004
X5.6184Y-3.9473
X5.6209Y-3.0676
X5.6292Y-4.3092
X5.6322Y-3.8935
X5.6388Y-3.0256
X5.6416Y-4.1939
X5.6442Y-3.8325
X5.648Y-3.9328
X5.6491Y-4.0227
X5.6646Y-3.1147
X5.6646Y-3.9413
X5.6681Y-4.001
X5.6681Y-4.6902
X5.6681Y-4.755
X5.6696Y-3.9561
X5.6728Y-4.0279
X5.6771Y-3.8924
X5.6791Y-3.8421
X5.68Y-3.2191
X5.6883Y-4.1449
X5.6899Y-4.0141
X5.6927Y-2.3506
X5.6977Y-3.2514
X5.7004Y-4.771
X5.7039Y-2.8292
X5.7144Y-2.5205
X5.7195Y-4.1972
X5.7226Y-4.1065
X5.7229Y-4.23
X5.726Y-2.3663
X5.7333Y-3.797
X5.7393Y-3.187
X5.7457Y-3.7454
X5.7511Y-4.3263
X5.7527Y-4.2281
X5.7533Y-3.9181
X5.7547Y-4.4839
X5.757Y-3.8219
X5.7619Y-4.7845
X5.766Y-3.1866
X5.7705Y-4.3354
X5.7711Y-5.2751
X5.7785Y-2.9506
X5.7795Y-3.7551
X5.7837Y-3.4705
X5.7865Y-4.2292
X5.7883Y-3.9255
X5.7884Y-4.3113
X5.7892Y-4.0384
X5.7923Y-3.8277
X5.7934Y-4.1574
X5.7973Y-3.9504
X5.7974Y-3.8807
X5.7982Y-3.9671
X5.7992Y-3.8558
X5.7999Y-4.221
X5.8032Y-3.922
X5.81Y-4.0373
X5.8101Y-4.0135
X5.8134Y-4.1683
X5.8184Y-3.9153
X5.8191Y-3.33
X5.8245Y-4.2562
X5.831Y-3.8186
X5.8315Y-3.5008
X5.836Y-5.2902
X5.837Y-3.8826
X5.8407Y-3.33
X5.8429Y-3.9671
X5.8466Y-4.1663
X5.8502Y-4.0778
X5.8526Y-4.0529
X5.8565Y-2.8334
X5.8567Y-3.5473
X5.8582Y-5.4713
X5.8625Y-4.1646
X5.8646Y-4.8763
X5.867Y-3.8208
X5.8699Y-3.8473
X5.8703Y-3.0976
X5.8723Y-3.8739
X5.8739Y-4.2232
X5.878Y-4.1448
X5.8784Y-3.9949
X5.8785Y-4.0253
X5.881Y-4.2044
X5.8831Y-4.0749
X5.8834Y-3.9124
X5.8835Y-4.3222
X5.9105Y-4.1952
X5.9118Y-3.8782
X5.9122Y-3.9469
X5.9144Y-4.2325
X5.9148Y-3.9127
X5.9177Y-3.4797
X5.9177Y-3.5014
X5.928Y-4.3273
X5.943Y-4.0388
X5.9472Y-4.1335
X5.9587Y-5.4136
X5.9697Y-4.6719
X5.9726Y-3.1868
X5.9731Y-2.8339
X5.9949Y-5.0885
X5.9982Y-3.3806
X6.0169Y-4.7308
X6.0226Y-5.3307
X6.0539Y-5.7486
X6.078Y-5.4961
X6.1024Y-2.8984
X6.1079Y-5.3277
X6.1084Y-4.7396
X6.1457Y-5.4734
X6.1518Y-3.9974
X6.1583Y-5.1043
X6.1616Y-4.3844
X6.18Y-2.8357
X6.1872Y-4.6383
X6.2004Y-4.1959
X6.2004Y-5.1675
X6.2203Y-4.2748
X6.2203Y-4.3247
X6.2203Y-4.4252
X6.2203Y-4.4747
X6.2203Y-4.5248
X6.2402Y-3.4815
X6.2559Y-3.7557
X6.2624Y-3.4129
X6.2705Y-4.4433
X6.2754Y-3.1154
X6.2818Y-4.7465
X6.2955Y-2.9177
X6.297Y-3.1154
X6.311Y-5.5793
X6.3171Y-2.9177
X6.3379Y-5.5857
X6.3443Y-3.6072
X6.3451Y-3.6906
X6.3504Y-4.2516
X6.3675Y-4.0804
X6.3861Y-4.902
X6.3885Y-5.5972
X6.3937Y-3.3098
X6.3971Y-2.0926
X6.3987Y-4.1003
X6.4027Y-5.7109
X6.4152Y-4.2748
X6.4152Y-4.3251
X6.4234Y-4.9339
X6.4388Y-5.7768
X6.4785Y-4.6531
X6.4826Y-5.5326
X6.4933Y-4.7917
X6.4941Y-2.7242
X6.4976Y-4.8213
X6.5095Y-5.5194
X6.5123Y-3.5205
X6.522Y-3.4797
X6.5323Y-5.4582
X6.5352Y-4.2463
X6.5516Y-5.4607
X6.5721Y-5.5973
X6.6606Y-4.8082
X6.698Y-4.7845
X6.7388Y-4.6939
X6.7742Y-5.3564
X6.9408Y-5.7284
T2
X4.0591Y-4.7087
X4.1776Y-4.7871
X4.4351Y-4.08
X4.5185Y-3.3945
T3
X3.3407Y-3.649
X3.3407Y-3.7301
X3.4317Y-3.8002
X3.4498Y-3.1659
X3.4498Y-3.26
X3.4986Y-3.1148
X3.6636Y-2.801
X3.7364Y-2.7415
X3.7557Y-2.9404
T5
X3.4055Y-2.6886
X3.4055Y-2.787
X4.2522Y-2.2596
X4.2522Y-2.5596
X6.1415Y-4.8563
X6.1591Y-3.5909
X6.24Y-4.8563
X6.2575Y-3.5909
X6.3364Y-3.3681
X6.4348Y-3.3681
T6
X3.4515Y-5.5707
X3.4915Y-5.6407
X3.5315Y-5.5707
X3.5715Y-5.6407
X3.6115Y-5.5707
X3.6515Y-5.6407
X3.6915Y-5.5707
X3.7315Y-5.6407
T7
X6.6559Y-4.2213
X6.6559Y-4.3197
X6.6559Y-4.3984
X6.6559Y-4.4969
X6.6575Y-2.1264
X6.6575Y-2.2248
X6.6575Y-2.3035
X6.6575Y-2.402
X6.6583Y-2.8228
X6.6583Y-2.9213
X6.6583Y-3.0
X6.6583Y-3.0984
X6.6626Y-3.5165
X6.6626Y-3.615
X6.6626Y-3.6937
X6.6626Y-3.7921
T8
X3.6795Y-4.4435
X3.6795Y-4.5526
X3.6795Y-4.6616
X3.6795Y-4.7707
X3.7914Y-4.389
X3.7914Y-4.498
X3.7914Y-4.6071
X3.7914Y-4.7161
X3.7914Y-4.8252
X5.4778Y-2.0045
X5.5778Y-2.0045
X5.6778Y-2.0045
T9
X4.5657Y-5.7858
X4.5894Y-5.5929
X5.1602Y-5.5929
X5.1839Y-5.7858
T10
X3.2713Y-5.6057
X3.9114Y-5.6057
T11
X4.077Y-2.9494
X4.077Y-3.5494
T12
X6.7626Y-4.1004
X6.7626Y-4.6177
X6.7642Y-2.0055
X6.7642Y-2.5228
X6.765Y-2.702
X6.765Y-3.2193
X6.7693Y-3.3957
X6.7693Y-3.913
T13
X3.7354Y-4.115
X3.7354Y-5.0992
T4
G00X3.5813Y-2.1396
M15
G01X3.5577Y-2.1396
M16
G05
G00X3.5813Y-2.4931
M15
G01X3.5577Y-2.4931
M16
G05
G00X3.8156Y-2.1537
M15
G01X3.7919Y-2.1537
M16
G05
G00X3.8156Y-2.4789
M15
G01X3.7919Y-2.4789
M16
G05
T0
M30
