%TF.GenerationSoftware,KiCad,Pcbnew,(6.99.0-1585-g9fcc641808)*%
%TF.CreationDate,2022-04-15T11:00:37+08:00*%
%TF.ProjectId,RaspberryPi,52617370-6265-4727-9279-50692e6b6963,rev?*%
%TF.SameCoordinates,Original*%
%TF.FileFunction,Paste,Top*%
%TF.FilePolarity,Positive*%
%FSLAX46Y46*%
G04 Gerber Fmt 4.6, Leading zero omitted, Abs format (unit mm)*
G04 Created by KiCad (PCBNEW (6.99.0-1585-g9fcc641808)) date 2022-04-15 11:00:37*
%MOMM*%
%LPD*%
G01*
G04 APERTURE LIST*
G04 Aperture macros list*
%AMRoundRect*
0 Rectangle with rounded corners*
0 $1 Rounding radius*
0 $2 $3 $4 $5 $6 $7 $8 $9 X,Y pos of 4 corners*
0 Add a 4 corners polygon primitive as box body*
4,1,4,$2,$3,$4,$5,$6,$7,$8,$9,$2,$3,0*
0 Add four circle primitives for the rounded corners*
1,1,$1+$1,$2,$3*
1,1,$1+$1,$4,$5*
1,1,$1+$1,$6,$7*
1,1,$1+$1,$8,$9*
0 Add four rect primitives between the rounded corners*
20,1,$1+$1,$2,$3,$4,$5,0*
20,1,$1+$1,$4,$5,$6,$7,0*
20,1,$1+$1,$6,$7,$8,$9,0*
20,1,$1+$1,$8,$9,$2,$3,0*%
G04 Aperture macros list end*
%ADD10C,0.010000*%
%ADD11RoundRect,0.200000X0.275000X-0.200000X0.275000X0.200000X-0.275000X0.200000X-0.275000X-0.200000X0*%
%ADD12RoundRect,0.003400X0.416600X0.081600X-0.416600X0.081600X-0.416600X-0.081600X0.416600X-0.081600X0*%
%ADD13RoundRect,0.003400X0.081600X-0.416600X0.081600X0.416600X-0.081600X0.416600X-0.081600X-0.416600X0*%
%ADD14RoundRect,0.200000X0.200000X0.275000X-0.200000X0.275000X-0.200000X-0.275000X0.200000X-0.275000X0*%
%ADD15R,0.250000X0.360000*%
%ADD16C,0.400000*%
%ADD17RoundRect,0.200000X-0.200000X-0.275000X0.200000X-0.275000X0.200000X0.275000X-0.200000X0.275000X0*%
%ADD18RoundRect,0.225000X-0.225000X-0.250000X0.225000X-0.250000X0.225000X0.250000X-0.225000X0.250000X0*%
%ADD19R,1.800000X2.400000*%
%ADD20RoundRect,0.150000X0.825000X0.150000X-0.825000X0.150000X-0.825000X-0.150000X0.825000X-0.150000X0*%
%ADD21RoundRect,0.150000X-0.825000X-0.150000X0.825000X-0.150000X0.825000X0.150000X-0.825000X0.150000X0*%
%ADD22R,0.700000X0.510000*%
%ADD23R,0.510000X0.700000*%
%ADD24R,0.380000X1.350000*%
%ADD25R,0.450000X1.750000*%
%ADD26RoundRect,0.200000X-0.275000X0.200000X-0.275000X-0.200000X0.275000X-0.200000X0.275000X0.200000X0*%
%ADD27RoundRect,0.225000X0.250000X-0.225000X0.250000X0.225000X-0.250000X0.225000X-0.250000X-0.225000X0*%
%ADD28RoundRect,0.225000X0.225000X0.250000X-0.225000X0.250000X-0.225000X-0.250000X0.225000X-0.250000X0*%
%ADD29RoundRect,0.225000X-0.250000X0.225000X-0.250000X-0.225000X0.250000X-0.225000X0.250000X0.225000X0*%
%ADD30R,0.800000X1.500000*%
%ADD31R,1.400000X1.900000*%
%ADD32R,1.300000X1.400000*%
%ADD33R,0.950000X1.000000*%
%ADD34R,2.100000X1.400000*%
%ADD35R,0.360000X0.250000*%
%ADD36RoundRect,0.150000X-0.150000X0.725000X-0.150000X-0.725000X0.150000X-0.725000X0.150000X0.725000X0*%
%ADD37RoundRect,0.250000X0.350000X0.650000X-0.350000X0.650000X-0.350000X-0.650000X0.350000X-0.650000X0*%
%ADD38RoundRect,0.150000X-0.512500X-0.150000X0.512500X-0.150000X0.512500X0.150000X-0.512500X0.150000X0*%
%ADD39RoundRect,0.218750X0.218750X0.381250X-0.218750X0.381250X-0.218750X-0.381250X0.218750X-0.381250X0*%
%ADD40RoundRect,0.150000X-0.150000X0.587500X-0.150000X-0.587500X0.150000X-0.587500X0.150000X0.587500X0*%
%ADD41R,0.700000X0.300000*%
%ADD42RoundRect,0.075000X-0.650000X-0.075000X0.650000X-0.075000X0.650000X0.075000X-0.650000X0.075000X0*%
%ADD43R,0.300000X1.900000*%
%ADD44RoundRect,0.250000X0.925000X-0.412500X0.925000X0.412500X-0.925000X0.412500X-0.925000X-0.412500X0*%
%ADD45RoundRect,0.150000X0.512500X0.150000X-0.512500X0.150000X-0.512500X-0.150000X0.512500X-0.150000X0*%
%ADD46C,0.200000*%
%ADD47RoundRect,0.250000X-0.375000X-0.625000X0.375000X-0.625000X0.375000X0.625000X-0.375000X0.625000X0*%
%ADD48RoundRect,0.218750X-0.218750X-0.381250X0.218750X-0.381250X0.218750X0.381250X-0.218750X0.381250X0*%
%ADD49RoundRect,0.218750X0.381250X-0.218750X0.381250X0.218750X-0.381250X0.218750X-0.381250X-0.218750X0*%
%ADD50O,0.875000X0.500000*%
%ADD51O,0.500000X0.875000*%
%ADD52RoundRect,0.150000X0.587500X0.150000X-0.587500X0.150000X-0.587500X-0.150000X0.587500X-0.150000X0*%
%ADD53R,2.400000X1.800000*%
G04 APERTURE END LIST*
%TO.C,U20*%
G36*
X106570230Y-125400230D02*
G01*
X103753000Y-125400230D01*
X103753000Y-122583000D01*
X106570230Y-122583000D01*
X106570230Y-125400230D01*
G37*
D10*
X106570230Y-125400230D02*
X103753000Y-125400230D01*
X103753000Y-122583000D01*
X106570230Y-122583000D01*
X106570230Y-125400230D01*
%TO.C,U8*%
G36*
X86964984Y-100005000D02*
G01*
X86481800Y-100005000D01*
X86481800Y-99521816D01*
X86964984Y-99521816D01*
X86964984Y-100005000D01*
G37*
X86964984Y-100005000D02*
X86481800Y-100005000D01*
X86481800Y-99521816D01*
X86964984Y-99521816D01*
X86964984Y-100005000D01*
G36*
X87331800Y-100195000D02*
G01*
X86906800Y-100195000D01*
X86906800Y-100165000D01*
X87151800Y-99915000D01*
X87331800Y-99915000D01*
X87331800Y-100195000D01*
G37*
G36*
X87331800Y-99615000D02*
G01*
X87151800Y-99615000D01*
X86906800Y-99365000D01*
X86906800Y-99335000D01*
X87331800Y-99335000D01*
X87331800Y-99615000D01*
G37*
G36*
X86536800Y-100165000D02*
G01*
X86536800Y-100195000D01*
X86111800Y-100195000D01*
X86111800Y-99915000D01*
X86291800Y-99915000D01*
X86536800Y-100165000D01*
G37*
G36*
X86536800Y-99365000D02*
G01*
X86291800Y-99615000D01*
X86111800Y-99615000D01*
X86111800Y-99335000D01*
X86536800Y-99335000D01*
X86536800Y-99365000D01*
G37*
%TD*%
D11*
%TO.C,R70*%
X158510000Y-87605000D03*
X158510000Y-85955000D03*
%TD*%
%TO.C,R71*%
X158521450Y-82868550D03*
X158521450Y-84518550D03*
%TD*%
D12*
%TO.C,U20*%
X108595000Y-126790000D03*
X108595000Y-126440000D03*
X108595000Y-126090000D03*
X108595000Y-125740000D03*
X108595000Y-125390000D03*
X108595000Y-125040000D03*
X108595000Y-124690000D03*
X108595000Y-124340000D03*
X108595000Y-123990000D03*
X108595000Y-123640000D03*
X108595000Y-123290000D03*
X108595000Y-122940000D03*
X108595000Y-122590000D03*
X108595000Y-122240000D03*
X108595000Y-121890000D03*
X108595000Y-121540000D03*
X108595000Y-121190000D03*
X101725000Y-121190000D03*
X101725000Y-121540000D03*
X101725000Y-121890000D03*
X101725000Y-122240000D03*
X101725000Y-122590000D03*
X101725000Y-122940000D03*
X101725000Y-123290000D03*
X101725000Y-123640000D03*
X101725000Y-123990000D03*
X101725000Y-124340000D03*
X101725000Y-124690000D03*
X101725000Y-125040000D03*
X101725000Y-125390000D03*
X101725000Y-125740000D03*
X101725000Y-126090000D03*
X101725000Y-126440000D03*
X101725000Y-126790000D03*
D13*
X102360000Y-127425000D03*
X102710000Y-127425000D03*
X103060000Y-127425000D03*
X103410000Y-127425000D03*
X103760000Y-127425000D03*
X104110000Y-127425000D03*
X104460000Y-127425000D03*
X104810000Y-127425000D03*
X105160000Y-127425000D03*
X105510000Y-127425000D03*
X105860000Y-127425000D03*
X106210000Y-127425000D03*
X106560000Y-127425000D03*
X106910000Y-127425000D03*
X107260000Y-127425000D03*
X107610000Y-127425000D03*
X107960000Y-127425000D03*
X107960000Y-120555000D03*
X107610000Y-120555000D03*
X107260000Y-120555000D03*
X106910000Y-120555000D03*
X106560000Y-120555000D03*
X106210000Y-120555000D03*
X105860000Y-120555000D03*
X105510000Y-120555000D03*
X105160000Y-120555000D03*
X104810000Y-120555000D03*
X104460000Y-120555000D03*
X104110000Y-120555000D03*
X103760000Y-120555000D03*
X103410000Y-120555000D03*
X103060000Y-120555000D03*
X102710000Y-120555000D03*
X102360000Y-120555000D03*
%TD*%
D14*
%TO.C,R60*%
X130025000Y-120455000D03*
X128375000Y-120455000D03*
%TD*%
D15*
%TO.C,D14*%
X162099999Y-53222499D03*
X162099999Y-54062499D03*
%TD*%
D16*
%TO.C,U3*%
X144970000Y-97450000D03*
X145770000Y-97450000D03*
X146570000Y-97450000D03*
X149770000Y-97450000D03*
X150570000Y-97450000D03*
X151370000Y-97450000D03*
X144970000Y-98250000D03*
X145770000Y-98250000D03*
X146570000Y-98250000D03*
X149770000Y-98250000D03*
X150570000Y-98250000D03*
X151370000Y-98250000D03*
X144970000Y-99050000D03*
X145770000Y-99050000D03*
X146570000Y-99050000D03*
X149770000Y-99050000D03*
X150570000Y-99050000D03*
X151370000Y-99050000D03*
X144970000Y-99850000D03*
X145770000Y-99850000D03*
X146570000Y-99850000D03*
X149770000Y-99850000D03*
X150570000Y-99850000D03*
X151370000Y-99850000D03*
X144970000Y-100650000D03*
X145770000Y-100650000D03*
X146570000Y-100650000D03*
X149770000Y-100650000D03*
X150570000Y-100650000D03*
X151370000Y-100650000D03*
X144970000Y-101450000D03*
X145770000Y-101450000D03*
X146570000Y-101450000D03*
X149770000Y-101450000D03*
X150570000Y-101450000D03*
X151370000Y-101450000D03*
X144970000Y-102250000D03*
X145770000Y-102250000D03*
X146570000Y-102250000D03*
X149770000Y-102250000D03*
X150570000Y-102250000D03*
X151370000Y-102250000D03*
X144970000Y-103050000D03*
X145770000Y-103050000D03*
X146570000Y-103050000D03*
X149770000Y-103050000D03*
X150570000Y-103050000D03*
X151370000Y-103050000D03*
X144970000Y-103850000D03*
X145770000Y-103850000D03*
X146570000Y-103850000D03*
X149770000Y-103850000D03*
X150570000Y-103850000D03*
X151370000Y-103850000D03*
X144970000Y-104650000D03*
X145770000Y-104650000D03*
X146570000Y-104650000D03*
X149770000Y-104650000D03*
X150570000Y-104650000D03*
X151370000Y-104650000D03*
X144970000Y-105450000D03*
X145770000Y-105450000D03*
X146570000Y-105450000D03*
X149770000Y-105450000D03*
X150570000Y-105450000D03*
X151370000Y-105450000D03*
X144970000Y-106250000D03*
X145770000Y-106250000D03*
X146570000Y-106250000D03*
X149770000Y-106250000D03*
X150570000Y-106250000D03*
X151370000Y-106250000D03*
X144970000Y-107050000D03*
X145770000Y-107050000D03*
X146570000Y-107050000D03*
X149770000Y-107050000D03*
X150570000Y-107050000D03*
X151370000Y-107050000D03*
X144970000Y-107850000D03*
X145770000Y-107850000D03*
X146570000Y-107850000D03*
X149770000Y-107850000D03*
X150570000Y-107850000D03*
X151370000Y-107850000D03*
X144970000Y-108650000D03*
X145770000Y-108650000D03*
X146570000Y-108650000D03*
X149770000Y-108650000D03*
X150570000Y-108650000D03*
X151370000Y-108650000D03*
X144970000Y-109450000D03*
X145770000Y-109450000D03*
X146570000Y-109450000D03*
X149770000Y-109450000D03*
X150570000Y-109450000D03*
X151370000Y-109450000D03*
%TD*%
D17*
%TO.C,R9*%
X111175000Y-56640000D03*
X112825000Y-56640000D03*
%TD*%
%TO.C,R8*%
X111175000Y-58230000D03*
X112825000Y-58230000D03*
%TD*%
%TO.C,R7*%
X111175000Y-59820000D03*
X112825000Y-59820000D03*
%TD*%
%TO.C,R4*%
X111175000Y-63020000D03*
X112825000Y-63020000D03*
%TD*%
%TO.C,R3*%
X111175000Y-64620000D03*
X112825000Y-64620000D03*
%TD*%
%TO.C,R5*%
X111185000Y-61430000D03*
X112835000Y-61430000D03*
%TD*%
D14*
%TO.C,R57*%
X132855000Y-56640000D03*
X134505000Y-56640000D03*
%TD*%
D11*
%TO.C,R13*%
X157490000Y-131925000D03*
X157490000Y-130275000D03*
%TD*%
%TO.C,R15*%
X150620000Y-137575000D03*
X150620000Y-135925000D03*
%TD*%
%TO.C,R16*%
X148900000Y-137575000D03*
X148900000Y-135925000D03*
%TD*%
D14*
%TO.C,R18*%
X152270000Y-129980000D03*
X150620000Y-129980000D03*
%TD*%
%TO.C,R17*%
X148895000Y-134330000D03*
X147245000Y-134330000D03*
%TD*%
D18*
%TO.C,C21*%
X110425000Y-80610000D03*
X111975000Y-80610000D03*
%TD*%
D19*
%TO.C,Y3*%
X151799999Y-91247499D03*
X147599999Y-91247499D03*
%TD*%
D20*
%TO.C,U31*%
X162945000Y-116915000D03*
X162945000Y-115645000D03*
X162945000Y-114375000D03*
X162945000Y-113105000D03*
X162945000Y-111835000D03*
X162945000Y-110565000D03*
X162945000Y-109295000D03*
X162945000Y-108025000D03*
X157995000Y-108025000D03*
X157995000Y-109295000D03*
X157995000Y-110565000D03*
X157995000Y-111835000D03*
X157995000Y-113105000D03*
X157995000Y-114375000D03*
X157995000Y-115645000D03*
X157995000Y-116915000D03*
%TD*%
D21*
%TO.C,U30*%
X145440000Y-60920000D03*
X145440000Y-62190000D03*
X145440000Y-63460000D03*
X145440000Y-64730000D03*
X140490000Y-64730000D03*
X140490000Y-63460000D03*
X140490000Y-62190000D03*
X140490000Y-60920000D03*
%TD*%
D22*
%TO.C,U28*%
X160899999Y-79379999D03*
X160899999Y-80329999D03*
X160899999Y-81279999D03*
X158579999Y-81279999D03*
X158579999Y-80329999D03*
X158579999Y-79379999D03*
%TD*%
D23*
%TO.C,U27*%
X168229999Y-120419999D03*
X169179999Y-120419999D03*
X170129999Y-120419999D03*
X170129999Y-122739999D03*
X169179999Y-122739999D03*
X168229999Y-122739999D03*
%TD*%
D24*
%TO.C,U25*%
X113409999Y-145039999D03*
X112409999Y-145039999D03*
X111409999Y-145039999D03*
X110409999Y-145039999D03*
X109409999Y-145039999D03*
X108409999Y-145039999D03*
X107409999Y-145039999D03*
X106409999Y-145039999D03*
X105409999Y-145039999D03*
X104409999Y-145039999D03*
X103409999Y-145039999D03*
X102409999Y-145039999D03*
X102409999Y-137039999D03*
X103409999Y-137039999D03*
X104409999Y-137039999D03*
X105409999Y-137039999D03*
X106409999Y-137039999D03*
X107409999Y-137039999D03*
X108409999Y-137039999D03*
X109409999Y-137039999D03*
X110409999Y-137039999D03*
X111409999Y-137039999D03*
X112409999Y-137039999D03*
X113409999Y-137039999D03*
%TD*%
D25*
%TO.C,U21*%
X144554999Y-79809999D03*
X145204999Y-79809999D03*
X145854999Y-79809999D03*
X146504999Y-79809999D03*
X147154999Y-79809999D03*
X147804999Y-79809999D03*
X148454999Y-79809999D03*
X149104999Y-79809999D03*
X149754999Y-79809999D03*
X150404999Y-79809999D03*
X151054999Y-79809999D03*
X151704999Y-79809999D03*
X152354999Y-79809999D03*
X153004999Y-79809999D03*
X153004999Y-87009999D03*
X152354999Y-87009999D03*
X151704999Y-87009999D03*
X151054999Y-87009999D03*
X150404999Y-87009999D03*
X149754999Y-87009999D03*
X149104999Y-87009999D03*
X148454999Y-87009999D03*
X147804999Y-87009999D03*
X147154999Y-87009999D03*
X146504999Y-87009999D03*
X145854999Y-87009999D03*
X145204999Y-87009999D03*
X144554999Y-87009999D03*
%TD*%
D11*
%TO.C,R103*%
X145480000Y-72965000D03*
X145480000Y-71315000D03*
%TD*%
D14*
%TO.C,R102*%
X149995001Y-63559995D03*
X148345000Y-63560000D03*
%TD*%
%TO.C,R101*%
X149999000Y-61880000D03*
X148349000Y-61880000D03*
%TD*%
%TO.C,R100*%
X164375000Y-103250000D03*
X162725000Y-103250000D03*
%TD*%
%TO.C,R99*%
X164115000Y-58720000D03*
X162465000Y-58720000D03*
%TD*%
%TO.C,R98*%
X164385000Y-101660000D03*
X162735000Y-101660000D03*
%TD*%
%TO.C,R97*%
X163385000Y-76170000D03*
X161735000Y-76170000D03*
%TD*%
%TO.C,R96*%
X164115000Y-55950000D03*
X162465000Y-55950000D03*
%TD*%
%TO.C,R95*%
X163375000Y-74170000D03*
X161725000Y-74170000D03*
%TD*%
D17*
%TO.C,R87*%
X155450000Y-77980000D03*
X157100000Y-77980000D03*
%TD*%
%TO.C,R86*%
X168625000Y-124290000D03*
X170275000Y-124290000D03*
%TD*%
D14*
%TO.C,R85*%
X123695000Y-119070000D03*
X122045000Y-119070000D03*
%TD*%
D26*
%TO.C,R84*%
X140890000Y-119775000D03*
X140890000Y-121425000D03*
%TD*%
%TO.C,R83*%
X142440000Y-119790000D03*
X142440000Y-121440000D03*
%TD*%
%TO.C,R82*%
X143970000Y-119790000D03*
X143970000Y-121440000D03*
%TD*%
%TO.C,R81*%
X145540000Y-119780000D03*
X145540000Y-121430000D03*
%TD*%
%TO.C,R80*%
X147080000Y-119780000D03*
X147080000Y-121430000D03*
%TD*%
D11*
%TO.C,R78*%
X115260000Y-118565000D03*
X115260000Y-116915000D03*
%TD*%
D14*
%TO.C,R68*%
X101245000Y-132820000D03*
X99595000Y-132820000D03*
%TD*%
%TO.C,R67*%
X105315000Y-147160000D03*
X106965000Y-147160000D03*
%TD*%
%TO.C,R66*%
X111535000Y-148630000D03*
X109885000Y-148630000D03*
%TD*%
D17*
%TO.C,R65*%
X111545000Y-147090000D03*
X113195000Y-147090000D03*
%TD*%
D18*
%TO.C,R64*%
X122835000Y-129780000D03*
X124385000Y-129780000D03*
%TD*%
D27*
%TO.C,R63*%
X132270000Y-134215000D03*
X132270000Y-132665000D03*
%TD*%
D18*
%TO.C,R62*%
X127545000Y-132730000D03*
X129095000Y-132730000D03*
%TD*%
D14*
%TO.C,R61*%
X153555000Y-123160000D03*
X151905000Y-123160000D03*
%TD*%
%TO.C,R59*%
X134505000Y-59860000D03*
X132855000Y-59860000D03*
%TD*%
%TO.C,R58*%
X134495000Y-58260000D03*
X132845000Y-58260000D03*
%TD*%
%TO.C,R56*%
X134515000Y-62990000D03*
X132865000Y-62990000D03*
%TD*%
%TO.C,R55*%
X134515000Y-55060000D03*
X132865000Y-55060000D03*
%TD*%
%TO.C,R54*%
X163485000Y-93740000D03*
X161835000Y-93740000D03*
%TD*%
%TO.C,R53*%
X163495000Y-91750000D03*
X161845000Y-91750000D03*
%TD*%
%TO.C,R52*%
X132865000Y-61430000D03*
X134515000Y-61430000D03*
%TD*%
D26*
%TO.C,R51*%
X148950000Y-112485000D03*
X148950000Y-114135000D03*
%TD*%
%TO.C,R50*%
X148960000Y-115625000D03*
X148960002Y-117275000D03*
%TD*%
D11*
%TO.C,R49*%
X110430003Y-122165002D03*
X110430000Y-123815000D03*
%TD*%
%TO.C,R48*%
X108940000Y-118545000D03*
X108940000Y-116895000D03*
%TD*%
%TO.C,R47*%
X107370000Y-118545000D03*
X107370000Y-116895000D03*
%TD*%
%TO.C,R46*%
X105790000Y-118545000D03*
X105790000Y-116895000D03*
%TD*%
%TO.C,R45*%
X104200000Y-118555000D03*
X104200000Y-116905000D03*
%TD*%
%TO.C,R44*%
X102590000Y-118555000D03*
X102590000Y-116905000D03*
%TD*%
%TO.C,R43*%
X100980000Y-118525000D03*
X100980000Y-116875000D03*
%TD*%
%TO.C,R42*%
X147100000Y-72965000D03*
X147100000Y-71315000D03*
%TD*%
%TO.C,R41*%
X148680000Y-72965000D03*
X148680000Y-71315000D03*
%TD*%
%TO.C,R40*%
X150270000Y-72955000D03*
X150270000Y-71305000D03*
%TD*%
%TO.C,R39*%
X151840000Y-71315000D03*
X151840000Y-72965000D03*
%TD*%
D26*
%TO.C,R38*%
X153420000Y-71315000D03*
X153420000Y-72965000D03*
%TD*%
%TO.C,R37*%
X155000000Y-71315000D03*
X155000000Y-72965000D03*
%TD*%
%TO.C,R36*%
X111720000Y-67165000D03*
X111720000Y-68815000D03*
%TD*%
D11*
%TO.C,R35*%
X104570000Y-133735000D03*
X104570000Y-132085000D03*
%TD*%
D26*
%TO.C,R34*%
X156590000Y-71345000D03*
X156590000Y-72995000D03*
%TD*%
D11*
%TO.C,R33*%
X111130000Y-133665000D03*
X111130000Y-132015000D03*
%TD*%
%TO.C,R32*%
X109520000Y-133665000D03*
X109520000Y-132015000D03*
%TD*%
%TO.C,R31*%
X107910000Y-133665000D03*
X107910000Y-132015000D03*
%TD*%
%TO.C,R30*%
X102950000Y-133745000D03*
X102950010Y-132095011D03*
%TD*%
%TO.C,R29*%
X106260000Y-133665000D03*
X106260000Y-132015000D03*
%TD*%
D26*
%TO.C,R28*%
X139140000Y-119785000D03*
X139140000Y-121435000D03*
%TD*%
D11*
%TO.C,R27*%
X105060000Y-103375000D03*
X105060000Y-105025000D03*
%TD*%
%TO.C,R26*%
X105060000Y-108105000D03*
X105060000Y-106455000D03*
%TD*%
D18*
%TO.C,R23*%
X153295000Y-114220000D03*
X151745000Y-114220000D03*
%TD*%
D28*
%TO.C,R22*%
X153290000Y-112640000D03*
X151740000Y-112640000D03*
%TD*%
D29*
%TO.C,R14*%
X119130000Y-106055000D03*
X119130000Y-107605000D03*
%TD*%
D11*
%TO.C,R11*%
X146910000Y-112415000D03*
X146909993Y-114064999D03*
%TD*%
D14*
%TO.C,R10*%
X123705000Y-116380000D03*
X122055000Y-116380000D03*
%TD*%
D30*
%TO.C,J3*%
X121074999Y-54269999D03*
X122174999Y-54669999D03*
X123274999Y-54269999D03*
X124374999Y-54069999D03*
X125474999Y-54269999D03*
X126574999Y-54069999D03*
X127674999Y-54269999D03*
D31*
X116414999Y-50979999D03*
D32*
X122264999Y-65129999D03*
D33*
X126574999Y-65329999D03*
D32*
X127964999Y-65129999D03*
D31*
X129564999Y-51979999D03*
D30*
X128774999Y-54269999D03*
%TD*%
D15*
%TO.C,D18*%
X163229999Y-99342499D03*
X163229999Y-100182499D03*
%TD*%
%TO.C,D17*%
X160809999Y-53219999D03*
X160809999Y-54059999D03*
%TD*%
%TO.C,D16*%
X162319999Y-69089999D03*
X162319999Y-69929999D03*
%TD*%
%TO.C,D15*%
X164369999Y-99322499D03*
X164369999Y-100162499D03*
%TD*%
%TO.C,D13*%
X164549999Y-69169999D03*
X164549999Y-70009999D03*
%TD*%
D34*
%TO.C,D12*%
X158899999Y-100829999D03*
X158899999Y-96429999D03*
%TD*%
D15*
%TO.C,D11*%
X132109999Y-65477499D03*
X132109999Y-64637499D03*
%TD*%
%TO.C,D10*%
X133659999Y-51729999D03*
X133659999Y-52569999D03*
%TD*%
%TO.C,D9*%
X135699999Y-51759999D03*
X135699999Y-52599999D03*
%TD*%
%TO.C,D8*%
X134679999Y-51742499D03*
X134679999Y-52582499D03*
%TD*%
D35*
%TO.C,D7*%
X165639999Y-87829999D03*
X164799999Y-87829999D03*
%TD*%
D15*
%TO.C,D6*%
X132529999Y-51722499D03*
X132529999Y-52562499D03*
%TD*%
D35*
%TO.C,D5*%
X165619999Y-89039999D03*
X164779999Y-89039999D03*
%TD*%
D15*
%TO.C,D4*%
X133319999Y-65489999D03*
X133319999Y-64649999D03*
%TD*%
%TO.C,D3*%
X112029999Y-54802499D03*
X112029999Y-53962499D03*
%TD*%
D11*
%TO.C,C85*%
X165260000Y-109505000D03*
X165260000Y-107855000D03*
%TD*%
D14*
%TO.C,C84*%
X161005000Y-119740000D03*
X159355000Y-119740000D03*
%TD*%
D11*
%TO.C,C83*%
X165200000Y-113605000D03*
X165200000Y-111955000D03*
%TD*%
D14*
%TO.C,C81*%
X165155000Y-119080000D03*
X163505000Y-119080000D03*
%TD*%
D27*
%TO.C,C72*%
X162710000Y-80775000D03*
X162710000Y-79225000D03*
%TD*%
D14*
%TO.C,C71*%
X174755000Y-120380000D03*
X173105000Y-120380000D03*
%TD*%
D27*
%TO.C,C70*%
X164410000Y-80765000D03*
X164410000Y-79215000D03*
%TD*%
D17*
%TO.C,C69*%
X162360000Y-62880000D03*
X164010000Y-62880000D03*
%TD*%
D11*
%TO.C,C67*%
X115200000Y-124975000D03*
X115200000Y-123325000D03*
%TD*%
D29*
%TO.C,C64*%
X155930000Y-80365000D03*
X155930000Y-81915000D03*
%TD*%
D14*
%TO.C,C63*%
X174770000Y-122000000D03*
X173120000Y-122000000D03*
%TD*%
D18*
%TO.C,C62*%
X110385000Y-92170000D03*
X111935000Y-92170000D03*
%TD*%
D17*
%TO.C,C61*%
X110365000Y-87200000D03*
X112015000Y-87200000D03*
%TD*%
D18*
%TO.C,C60*%
X99645000Y-131100000D03*
X101195000Y-131100000D03*
%TD*%
D11*
%TO.C,C59*%
X156320000Y-102525000D03*
X156320000Y-100875000D03*
%TD*%
D18*
%TO.C,C58*%
X153395000Y-94340000D03*
X151845000Y-94340000D03*
%TD*%
D29*
%TO.C,C57*%
X144610000Y-90875000D03*
X144610000Y-92425000D03*
%TD*%
D18*
%TO.C,C56*%
X178095000Y-102200000D03*
X179645000Y-102200000D03*
%TD*%
D28*
%TO.C,C55*%
X178475000Y-146030000D03*
X176925000Y-146030000D03*
%TD*%
D14*
%TO.C,C54*%
X157735000Y-119700000D03*
X156085000Y-119700000D03*
%TD*%
D18*
%TO.C,C53*%
X174895000Y-102160000D03*
X176445000Y-102160000D03*
%TD*%
D17*
%TO.C,C52*%
X110375000Y-77360000D03*
X112025000Y-77360000D03*
%TD*%
D11*
%TO.C,C50*%
X143630000Y-114095000D03*
X143630000Y-112445000D03*
%TD*%
D18*
%TO.C,C49*%
X117175000Y-119340000D03*
X118725000Y-119340000D03*
%TD*%
%TO.C,C48*%
X117230000Y-124130000D03*
X118780000Y-124130000D03*
%TD*%
D27*
%TO.C,C46*%
X153550000Y-91445000D03*
X153550000Y-89895000D03*
%TD*%
D18*
%TO.C,C45*%
X110415000Y-90540000D03*
X111965000Y-90540000D03*
%TD*%
%TO.C,C44*%
X110401000Y-85570000D03*
X111951000Y-85570000D03*
%TD*%
%TO.C,C43*%
X110425000Y-82230000D03*
X111975000Y-82230000D03*
%TD*%
%TO.C,C42*%
X110415000Y-88860000D03*
X111965000Y-88860000D03*
%TD*%
%TO.C,C41*%
X117195000Y-120950000D03*
X118745000Y-120950000D03*
%TD*%
D27*
%TO.C,C39*%
X110500000Y-118525000D03*
X110500000Y-116975000D03*
%TD*%
D29*
%TO.C,C38*%
X100520000Y-98205000D03*
X100520000Y-99755000D03*
%TD*%
D18*
%TO.C,C37*%
X111265000Y-112020000D03*
X112815000Y-112020000D03*
%TD*%
%TO.C,C36*%
X117180000Y-116110000D03*
X118730000Y-116110000D03*
%TD*%
%TO.C,C35*%
X110405000Y-83900000D03*
X111955000Y-83900000D03*
%TD*%
D29*
%TO.C,C34*%
X97710000Y-98275000D03*
X97710000Y-99825000D03*
%TD*%
%TO.C,C33*%
X138410000Y-116615000D03*
X138410000Y-118165000D03*
%TD*%
D18*
%TO.C,C31*%
X111245000Y-115270000D03*
X112795000Y-115270000D03*
%TD*%
%TO.C,C30*%
X117185000Y-114520000D03*
X118735000Y-114520000D03*
%TD*%
%TO.C,C29*%
X110425000Y-78980000D03*
X111975000Y-78980000D03*
%TD*%
%TO.C,C28*%
X111245000Y-113660000D03*
X112795000Y-113660000D03*
%TD*%
%TO.C,C26*%
X117165000Y-117720000D03*
X118715000Y-117720000D03*
%TD*%
%TO.C,C25*%
X153295000Y-115800000D03*
X151745000Y-115800000D03*
%TD*%
%TO.C,C19*%
X173365000Y-124180000D03*
X174915000Y-124180000D03*
%TD*%
%TO.C,C18*%
X113315000Y-74970000D03*
X114865000Y-74970000D03*
%TD*%
D27*
%TO.C,C17*%
X116550000Y-73185000D03*
X116550000Y-71635000D03*
%TD*%
%TO.C,C16*%
X111710000Y-73035000D03*
X111710000Y-71485000D03*
%TD*%
D29*
%TO.C,C14*%
X94940000Y-98305000D03*
X94940000Y-99855000D03*
%TD*%
%TO.C,C13*%
X92130000Y-98195000D03*
X92130000Y-99745000D03*
%TD*%
D18*
%TO.C,C12*%
X117220000Y-122530000D03*
X118770000Y-122530000D03*
%TD*%
D28*
%TO.C,C8*%
X130025000Y-116750000D03*
X128475000Y-116750000D03*
%TD*%
D29*
%TO.C,C6*%
X103300000Y-98235000D03*
X103300000Y-99785000D03*
%TD*%
D28*
%TO.C,C5*%
X110025000Y-67220000D03*
X108475000Y-67220000D03*
%TD*%
D18*
%TO.C,C4*%
X110375000Y-93860000D03*
X111925000Y-93860000D03*
%TD*%
D29*
%TO.C,C1*%
X116130000Y-67275000D03*
X116130000Y-68825000D03*
%TD*%
D27*
%TO.C,C40*%
X176725100Y-139386200D03*
X176725100Y-137836200D03*
%TD*%
D36*
%TO.C,Q1*%
X90370000Y-85730000D03*
X89100000Y-85730000D03*
X87830000Y-85730000D03*
X86560000Y-85730000D03*
X86560000Y-90880000D03*
X87830000Y-90880000D03*
X89100000Y-90880000D03*
X90370000Y-90880000D03*
%TD*%
D37*
%TO.C,AE1*%
X153720000Y-147180000D03*
X150820000Y-147180000D03*
%TD*%
D27*
%TO.C,C68*%
X158630000Y-138180000D03*
X158630000Y-136630000D03*
%TD*%
D19*
%TO.C,Y4*%
X152429999Y-140547499D03*
X156629999Y-140547499D03*
%TD*%
D27*
%TO.C,C15*%
X93905000Y-79290000D03*
X93905000Y-77740000D03*
%TD*%
D28*
%TO.C,R69*%
X124345000Y-131650000D03*
X122795000Y-131650000D03*
%TD*%
%TO.C,R72*%
X120975000Y-136990000D03*
X119425000Y-136990000D03*
%TD*%
D27*
%TO.C,C79*%
X160300000Y-142560000D03*
X160300000Y-141010000D03*
%TD*%
D26*
%TO.C,R91*%
X152410000Y-135980000D03*
X152410000Y-137630000D03*
%TD*%
D38*
%TO.C,U9*%
X86347500Y-93795000D03*
X86347500Y-94745000D03*
X86347500Y-95695000D03*
X88622500Y-95695000D03*
X88622500Y-93795000D03*
%TD*%
D16*
%TO.C,U4*%
X108568400Y-97490300D03*
X109368400Y-97490300D03*
X110168400Y-97490300D03*
X113368400Y-97490300D03*
X114168400Y-97490300D03*
X114968400Y-97490300D03*
X108568400Y-98290300D03*
X109368400Y-98290300D03*
X110168400Y-98290300D03*
X113368400Y-98290300D03*
X114168400Y-98290300D03*
X114968400Y-98290300D03*
X108568400Y-99090300D03*
X109368400Y-99090300D03*
X110168400Y-99090300D03*
X113368400Y-99090300D03*
X114168400Y-99090300D03*
X114968400Y-99090300D03*
X108568400Y-99890300D03*
X109368400Y-99890300D03*
X110168400Y-99890300D03*
X113368400Y-99890300D03*
X114168400Y-99890300D03*
X114968400Y-99890300D03*
X108568400Y-100690300D03*
X109368400Y-100690300D03*
X110168400Y-100690300D03*
X113368400Y-100690300D03*
X114168400Y-100690300D03*
X114968400Y-100690300D03*
X108568400Y-101490300D03*
X109368400Y-101490300D03*
X110168400Y-101490300D03*
X113368400Y-101490300D03*
X114168400Y-101490300D03*
X114968400Y-101490300D03*
X108568400Y-102290300D03*
X109368400Y-102290300D03*
X110168400Y-102290300D03*
X113368400Y-102290300D03*
X114168400Y-102290300D03*
X114968400Y-102290300D03*
X108568400Y-103090300D03*
X109368400Y-103090300D03*
X110168400Y-103090300D03*
X113368400Y-103090300D03*
X114168400Y-103090300D03*
X114968400Y-103090300D03*
X108568400Y-103890300D03*
X109368400Y-103890300D03*
X110168400Y-103890300D03*
X113368400Y-103890300D03*
X114168400Y-103890300D03*
X114968400Y-103890300D03*
X108568400Y-104690300D03*
X109368400Y-104690300D03*
X110168400Y-104690300D03*
X113368400Y-104690300D03*
X114168400Y-104690300D03*
X114968400Y-104690300D03*
X108568400Y-105490300D03*
X109368400Y-105490300D03*
X110168400Y-105490300D03*
X113368400Y-105490300D03*
X114168400Y-105490300D03*
X114968400Y-105490300D03*
X108568400Y-106290300D03*
X109368400Y-106290300D03*
X110168400Y-106290300D03*
X113368400Y-106290300D03*
X114168400Y-106290300D03*
X114968400Y-106290300D03*
X108568400Y-107090300D03*
X109368400Y-107090300D03*
X110168400Y-107090300D03*
X113368400Y-107090300D03*
X114168400Y-107090300D03*
X114968400Y-107090300D03*
X108568400Y-107890300D03*
X109368400Y-107890300D03*
X110168400Y-107890300D03*
X113368400Y-107890300D03*
X114168400Y-107890300D03*
X114968400Y-107890300D03*
X108568400Y-108690300D03*
X109368400Y-108690300D03*
X110168400Y-108690300D03*
X113368400Y-108690300D03*
X114168400Y-108690300D03*
X114968400Y-108690300D03*
X108568400Y-109490300D03*
X109368400Y-109490300D03*
X110168400Y-109490300D03*
X113368400Y-109490300D03*
X114168400Y-109490300D03*
X114968400Y-109490300D03*
%TD*%
D39*
%TO.C,L1*%
X88537500Y-97745000D03*
X86412500Y-97745000D03*
%TD*%
D40*
%TO.C,Q3*%
X129220000Y-134912500D03*
X127320000Y-134912500D03*
X128270000Y-136787500D03*
%TD*%
D41*
%TO.C,P1*%
X98524999Y-56084999D03*
X98524999Y-56584999D03*
X98524999Y-57084999D03*
X98524999Y-57584999D03*
X98524999Y-58084999D03*
X98524999Y-58584999D03*
X98524999Y-59084999D03*
X98524999Y-59584999D03*
X98524999Y-60084999D03*
X98524999Y-60584999D03*
X98524999Y-61084999D03*
X98524999Y-61584999D03*
X96824999Y-61334999D03*
X96824999Y-60834999D03*
X96824999Y-60334999D03*
X96824999Y-59834999D03*
X96824999Y-59334999D03*
X96824999Y-58834999D03*
X96824999Y-58334999D03*
X96824999Y-57834999D03*
X96824999Y-57334999D03*
X96824999Y-56834999D03*
X96824999Y-56334999D03*
X96824999Y-55834999D03*
%TD*%
D42*
%TO.C,U12*%
X91675000Y-69645000D03*
X91675000Y-70145000D03*
X91675000Y-70645000D03*
X91675000Y-71145000D03*
X91675000Y-71645000D03*
X96075000Y-71645000D03*
X96075000Y-71145000D03*
X96075000Y-70645000D03*
X96075000Y-70145000D03*
X96075000Y-69645000D03*
%TD*%
D29*
%TO.C,R20*%
X176710000Y-134690000D03*
X176710000Y-136240000D03*
%TD*%
D43*
%TO.C,J8*%
X128569999Y-141059499D03*
X128069999Y-141059499D03*
X127569999Y-141059499D03*
X127069999Y-141059499D03*
X126569999Y-141059499D03*
X126069999Y-141059499D03*
X125569999Y-141059499D03*
X125069999Y-141059499D03*
X124569999Y-141059499D03*
X124069999Y-141059499D03*
X123569999Y-141059499D03*
X123069999Y-141059499D03*
X122569999Y-141059499D03*
X122069999Y-141059499D03*
X121569999Y-141059499D03*
X121069999Y-141059499D03*
X120569999Y-141059499D03*
X120069999Y-141059499D03*
X119569999Y-141059499D03*
%TD*%
D29*
%TO.C,R12*%
X116550000Y-135775000D03*
X116550000Y-137325000D03*
%TD*%
D17*
%TO.C,R89*%
X162040100Y-142901200D03*
X163690100Y-142901200D03*
%TD*%
D44*
%TO.C,C10*%
X104575000Y-55360000D03*
X104575000Y-52285000D03*
%TD*%
D28*
%TO.C,C78*%
X156955000Y-144375000D03*
X155405000Y-144375000D03*
%TD*%
D29*
%TO.C,C7*%
X107195000Y-53320000D03*
X107195000Y-54870000D03*
%TD*%
%TO.C,C66*%
X157510000Y-127255000D03*
X157510000Y-128805000D03*
%TD*%
D18*
%TO.C,C47*%
X128465000Y-118740000D03*
X130015000Y-118740000D03*
%TD*%
D16*
%TO.C,U2*%
X123738400Y-79550300D03*
X123738400Y-78750300D03*
X123738400Y-77950300D03*
X123738400Y-74750300D03*
X123738400Y-73950300D03*
X123738400Y-73150300D03*
X124538400Y-79550300D03*
X124538400Y-78750300D03*
X124538400Y-77950300D03*
X124538400Y-74750300D03*
X124538400Y-73950300D03*
X124538400Y-73150300D03*
X125338400Y-79550300D03*
X125338400Y-78750300D03*
X125338400Y-77950300D03*
X125338400Y-74750300D03*
X125338400Y-73950300D03*
X125338400Y-73150300D03*
X126138400Y-79550300D03*
X126138400Y-78750300D03*
X126138400Y-77950300D03*
X126138400Y-74750300D03*
X126138400Y-73950300D03*
X126138400Y-73150300D03*
X126938400Y-79550300D03*
X126938400Y-78750300D03*
X126938400Y-77950300D03*
X126938400Y-74750300D03*
X126938400Y-73950300D03*
X126938400Y-73150300D03*
X127738400Y-79550300D03*
X127738400Y-78750300D03*
X127738400Y-77950300D03*
X127738400Y-74750300D03*
X127738400Y-73950300D03*
X127738400Y-73150300D03*
X128538400Y-79550300D03*
X128538400Y-78750300D03*
X128538400Y-77950300D03*
X128538400Y-74750300D03*
X128538400Y-73950300D03*
X128538400Y-73150300D03*
X129338400Y-79550300D03*
X129338400Y-78750300D03*
X129338400Y-77950300D03*
X129338400Y-74750300D03*
X129338400Y-73950300D03*
X129338400Y-73150300D03*
X130138400Y-79550300D03*
X130138400Y-78750300D03*
X130138400Y-77950300D03*
X130138400Y-74750300D03*
X130138400Y-73950300D03*
X130138400Y-73150300D03*
X130938400Y-79550300D03*
X130938400Y-78750300D03*
X130938400Y-77950300D03*
X130938400Y-74750300D03*
X130938400Y-73950300D03*
X130938400Y-73150300D03*
X131738400Y-79550300D03*
X131738400Y-78750300D03*
X131738400Y-77950300D03*
X131738400Y-74750300D03*
X131738400Y-73950300D03*
X131738400Y-73150300D03*
X132538400Y-79550300D03*
X132538400Y-78750300D03*
X132538400Y-77950300D03*
X132538400Y-74750300D03*
X132538400Y-73950300D03*
X132538400Y-73150300D03*
X133338400Y-79550300D03*
X133338400Y-78750300D03*
X133338400Y-77950300D03*
X133338400Y-74750300D03*
X133338400Y-73950300D03*
X133338400Y-73150300D03*
X134138400Y-79550300D03*
X134138400Y-78750300D03*
X134138400Y-77950300D03*
X134138400Y-74750300D03*
X134138400Y-73950300D03*
X134138400Y-73150300D03*
X134938400Y-79550300D03*
X134938400Y-78750300D03*
X134938400Y-77950300D03*
X134938400Y-74750300D03*
X134938400Y-73950300D03*
X134938400Y-73150300D03*
X135738400Y-79550300D03*
X135738400Y-78750300D03*
X135738400Y-77950300D03*
X135738400Y-74750300D03*
X135738400Y-73950300D03*
X135738400Y-73150300D03*
%TD*%
D40*
%TO.C,Q2*%
X124530000Y-134872500D03*
X122630000Y-134872500D03*
X123580000Y-136747500D03*
%TD*%
D18*
%TO.C,C32*%
X130265000Y-123405000D03*
X131815000Y-123405000D03*
%TD*%
D45*
%TO.C,U15*%
X178437500Y-143165000D03*
X178437500Y-142215000D03*
X178437500Y-141265000D03*
X176162500Y-141265000D03*
X176162500Y-143165000D03*
%TD*%
D46*
%TO.C,U7*%
X108135000Y-72085000D03*
X108485000Y-72085000D03*
X108135000Y-72435000D03*
X108485000Y-72435000D03*
%TD*%
D47*
%TO.C,F1*%
X100675000Y-58095000D03*
X103475000Y-58095000D03*
%TD*%
D38*
%TO.C,U10*%
X104187500Y-67655000D03*
X104187500Y-68605000D03*
X104187500Y-69555000D03*
X106462500Y-69555000D03*
X106462500Y-67655000D03*
%TD*%
D28*
%TO.C,C22*%
X95980000Y-75615000D03*
X94430000Y-75615000D03*
%TD*%
D48*
%TO.C,L4*%
X171952600Y-141041200D03*
X174077600Y-141041200D03*
%TD*%
D26*
%TO.C,R25*%
X97035000Y-79190000D03*
X97035000Y-80840000D03*
%TD*%
D27*
%TO.C,C3*%
X110515000Y-54950000D03*
X110515000Y-53400000D03*
%TD*%
D17*
%TO.C,R88*%
X152855000Y-134385000D03*
X154505000Y-134385000D03*
%TD*%
D20*
%TO.C,U14*%
X90610000Y-81660000D03*
X90610000Y-80390000D03*
X90610000Y-79120000D03*
X90610000Y-77850000D03*
X85660000Y-77850000D03*
X85660000Y-79120000D03*
X85660000Y-80390000D03*
X85660000Y-81660000D03*
%TD*%
D49*
%TO.C,L3*%
X96985000Y-90037500D03*
X96985000Y-87912500D03*
%TD*%
D18*
%TO.C,C23*%
X89590000Y-76055000D03*
X91140000Y-76055000D03*
%TD*%
D11*
%TO.C,R92*%
X163310000Y-147390000D03*
X163310000Y-145740000D03*
%TD*%
D28*
%TO.C,C76*%
X166930100Y-142901200D03*
X165380100Y-142901200D03*
%TD*%
D16*
%TO.C,U5*%
X123768400Y-91820300D03*
X123768400Y-91020300D03*
X123768400Y-90220300D03*
X123768400Y-87020300D03*
X123768400Y-86220300D03*
X123768400Y-85420300D03*
X124568400Y-91820300D03*
X124568400Y-91020300D03*
X124568400Y-90220300D03*
X124568400Y-87020300D03*
X124568400Y-86220300D03*
X124568400Y-85420300D03*
X125368400Y-91820300D03*
X125368400Y-91020300D03*
X125368400Y-90220300D03*
X125368400Y-87020300D03*
X125368400Y-86220300D03*
X125368400Y-85420300D03*
X126168400Y-91820300D03*
X126168400Y-91020300D03*
X126168400Y-90220300D03*
X126168400Y-87020300D03*
X126168400Y-86220300D03*
X126168400Y-85420300D03*
X126968400Y-91820300D03*
X126968400Y-91020300D03*
X126968400Y-90220300D03*
X126968400Y-87020300D03*
X126968400Y-86220300D03*
X126968400Y-85420300D03*
X127768400Y-91820300D03*
X127768400Y-91020300D03*
X127768400Y-90220300D03*
X127768400Y-87020300D03*
X127768400Y-86220300D03*
X127768400Y-85420300D03*
X128568400Y-91820300D03*
X128568400Y-91020300D03*
X128568400Y-90220300D03*
X128568400Y-87020300D03*
X128568400Y-86220300D03*
X128568400Y-85420300D03*
X129368400Y-91820300D03*
X129368400Y-91020300D03*
X129368400Y-90220300D03*
X129368400Y-87020300D03*
X129368400Y-86220300D03*
X129368400Y-85420300D03*
X130168400Y-91820300D03*
X130168400Y-91020300D03*
X130168400Y-90220300D03*
X130168400Y-87020300D03*
X130168400Y-86220300D03*
X130168400Y-85420300D03*
X130968400Y-91820300D03*
X130968400Y-91020300D03*
X130968400Y-90220300D03*
X130968400Y-87020300D03*
X130968400Y-86220300D03*
X130968400Y-85420300D03*
X131768400Y-91820300D03*
X131768400Y-91020300D03*
X131768400Y-90220300D03*
X131768400Y-87020300D03*
X131768400Y-86220300D03*
X131768400Y-85420300D03*
X132568400Y-91820300D03*
X132568400Y-91020300D03*
X132568400Y-90220300D03*
X132568400Y-87020300D03*
X132568400Y-86220300D03*
X132568400Y-85420300D03*
X133368400Y-91820300D03*
X133368400Y-91020300D03*
X133368400Y-90220300D03*
X133368400Y-87020300D03*
X133368400Y-86220300D03*
X133368400Y-85420300D03*
X134168400Y-91820300D03*
X134168400Y-91020300D03*
X134168400Y-90220300D03*
X134168400Y-87020300D03*
X134168400Y-86220300D03*
X134168400Y-85420300D03*
X134968400Y-91820300D03*
X134968400Y-91020300D03*
X134968400Y-90220300D03*
X134968400Y-87020300D03*
X134968400Y-86220300D03*
X134968400Y-85420300D03*
X135768400Y-91820300D03*
X135768400Y-91020300D03*
X135768400Y-90220300D03*
X135768400Y-87020300D03*
X135768400Y-86220300D03*
X135768400Y-85420300D03*
%TD*%
%TO.C,U1*%
X140238400Y-111980300D03*
X139438400Y-111980300D03*
X138638407Y-111980294D03*
X137838409Y-111980294D03*
X137038400Y-111980300D03*
X136238400Y-111980300D03*
X135438400Y-111980300D03*
X134638400Y-111980300D03*
X133038400Y-111980300D03*
X132238400Y-111980300D03*
X130638400Y-111980300D03*
X129838400Y-111980300D03*
X128238400Y-111980300D03*
X127438400Y-111980300D03*
X126638406Y-111980294D03*
X125838400Y-111980300D03*
X125038409Y-111980294D03*
X124238400Y-111980300D03*
X123438400Y-111980300D03*
X122638400Y-111980300D03*
X140238400Y-111180300D03*
X139438400Y-111180300D03*
X138638400Y-111180300D03*
X137838409Y-111180296D03*
X136238400Y-111180300D03*
X135438400Y-111180300D03*
X134638400Y-111180300D03*
X133038400Y-111180300D03*
X132238400Y-111180300D03*
X130638400Y-111180300D03*
X129838400Y-111180300D03*
X128238400Y-111180300D03*
X127438400Y-111180300D03*
X126638400Y-111180300D03*
X125038400Y-111180300D03*
X124238400Y-111180300D03*
X123438400Y-111180300D03*
X122638400Y-111180300D03*
X139438400Y-110380300D03*
X138638407Y-110380297D03*
X137838409Y-110380297D03*
X137038410Y-110380297D03*
X135438400Y-110380300D03*
X134638400Y-110380300D03*
X133038400Y-110380300D03*
X132238400Y-110380300D03*
X130638400Y-110380300D03*
X129838400Y-110380300D03*
X128238400Y-110380300D03*
X127438400Y-110380300D03*
X125838407Y-110380297D03*
X125038400Y-110380300D03*
X124238400Y-110380300D03*
X123438400Y-110380300D03*
X140238404Y-109580299D03*
X139438400Y-109580300D03*
X138638400Y-109580300D03*
X137838400Y-109580300D03*
X137038410Y-109580299D03*
X136238412Y-109580299D03*
X134638400Y-109580300D03*
X133838400Y-109580300D03*
X133038400Y-109580300D03*
X132238400Y-109580300D03*
X131438400Y-109580300D03*
X130638400Y-109580300D03*
X129838400Y-109580300D03*
X129038400Y-109580300D03*
X128238400Y-109580300D03*
X126638400Y-109580300D03*
X125838407Y-109580299D03*
X125038400Y-109580300D03*
X124238400Y-109580300D03*
X123438400Y-109580300D03*
X122638400Y-109580300D03*
X140238404Y-108780301D03*
X139438405Y-108780301D03*
X138638400Y-108780300D03*
X137838409Y-108780301D03*
X137038410Y-108780301D03*
X136238412Y-108780301D03*
X135438400Y-108780300D03*
X134638400Y-108780300D03*
X133838400Y-108780300D03*
X133038400Y-108780300D03*
X132238400Y-108780300D03*
X131438400Y-108780300D03*
X130638400Y-108780300D03*
X129838400Y-108780300D03*
X129038400Y-108780300D03*
X128238400Y-108780300D03*
X127438404Y-108780301D03*
X126638400Y-108780300D03*
X125838407Y-108780301D03*
X125038409Y-108780301D03*
X124238400Y-108780300D03*
X123438400Y-108780300D03*
X122638400Y-108780300D03*
X139438405Y-107980302D03*
X138638400Y-107980300D03*
X135438388Y-107980302D03*
X134638400Y-107980300D03*
X133838400Y-107980300D03*
X133038400Y-107980300D03*
X132238400Y-107980300D03*
X131438400Y-107980300D03*
X130638400Y-107980300D03*
X129838400Y-107980300D03*
X129038400Y-107980300D03*
X128238400Y-107980300D03*
X127438400Y-107980300D03*
X124238400Y-107980300D03*
X123438400Y-107980300D03*
X140238404Y-107180304D03*
X139438405Y-107180304D03*
X138638400Y-107180300D03*
X137838400Y-107180300D03*
X137038400Y-107180300D03*
X136238412Y-107180304D03*
X135438388Y-107180304D03*
X134638400Y-107180300D03*
X133838400Y-107180300D03*
X133038400Y-107180300D03*
X132238400Y-107180300D03*
X131438400Y-107180300D03*
X130638400Y-107180300D03*
X129838400Y-107180300D03*
X129038400Y-107180300D03*
X128238400Y-107180300D03*
X127438400Y-107180300D03*
X126638400Y-107180300D03*
X125838400Y-107180300D03*
X125038400Y-107180300D03*
X124238400Y-107180300D03*
X123438400Y-107180300D03*
X122638400Y-107180300D03*
X140238400Y-106380300D03*
X139438405Y-106380305D03*
X138638407Y-106380305D03*
X137838400Y-106380300D03*
X137038410Y-106380305D03*
X136238400Y-106380300D03*
X135438400Y-106380300D03*
X134638400Y-106380300D03*
X133838400Y-106380300D03*
X133038400Y-106380300D03*
X132238400Y-106380300D03*
X131438400Y-106380300D03*
X130638400Y-106380300D03*
X129838400Y-106380300D03*
X129038400Y-106380300D03*
X128238400Y-106380300D03*
X127438404Y-106380305D03*
X126638406Y-106380305D03*
X125838407Y-106380305D03*
X125038409Y-106380305D03*
X124238400Y-106380300D03*
X123438400Y-106380300D03*
X122638400Y-106380300D03*
X139438400Y-105580300D03*
X138638400Y-105580300D03*
X135438400Y-105580300D03*
X134638400Y-105580300D03*
X133838400Y-105580300D03*
X133038400Y-105580300D03*
X132238400Y-105580300D03*
X131438400Y-105580300D03*
X130638400Y-105580300D03*
X129838400Y-105580300D03*
X129038400Y-105580300D03*
X128238400Y-105580300D03*
X127438400Y-105580300D03*
X124238400Y-105580300D03*
X123438400Y-105580300D03*
X140238400Y-104780300D03*
X139438400Y-104780300D03*
X138638400Y-104780300D03*
X137838400Y-104780300D03*
X137038400Y-104780300D03*
X136238400Y-104780300D03*
X135438400Y-104780300D03*
X134638400Y-104780300D03*
X133838400Y-104780300D03*
X133038400Y-104780300D03*
X132238400Y-104780300D03*
X131438400Y-104780300D03*
X130638400Y-104780300D03*
X129838400Y-104780300D03*
X129038400Y-104780300D03*
X128238400Y-104780300D03*
X127438400Y-104780300D03*
X126638400Y-104780300D03*
X125838400Y-104780300D03*
X125038400Y-104780300D03*
X124238400Y-104780300D03*
X123438400Y-104780300D03*
X122638400Y-104780300D03*
X140238400Y-103980300D03*
X139438400Y-103980300D03*
X138638400Y-103980300D03*
X137838400Y-103980300D03*
X137038400Y-103980300D03*
X136238400Y-103980300D03*
X135438400Y-103980300D03*
X134638400Y-103980300D03*
X133838400Y-103980300D03*
X133038400Y-103980300D03*
X132238400Y-103980300D03*
X131438400Y-103980300D03*
X130638400Y-103980300D03*
X129838400Y-103980300D03*
X129038400Y-103980300D03*
X128238400Y-103980300D03*
X127438400Y-103980300D03*
X126638400Y-103980300D03*
X125838400Y-103980300D03*
X125038400Y-103980300D03*
X124238400Y-103980300D03*
X123438400Y-103980300D03*
X122638400Y-103980300D03*
X139438400Y-103180300D03*
X138638400Y-103180300D03*
X135438400Y-103180300D03*
X134638400Y-103180300D03*
X133838400Y-103180300D03*
X133038400Y-103180300D03*
X132238400Y-103180300D03*
X131438400Y-103180300D03*
X130638400Y-103180300D03*
X129838400Y-103180300D03*
X129038400Y-103180300D03*
X128238400Y-103180300D03*
X127438400Y-103180300D03*
X124238400Y-103180300D03*
X123438400Y-103180300D03*
X140238400Y-102380300D03*
X139438400Y-102380300D03*
X138638400Y-102380300D03*
X137838400Y-102380300D03*
X137038400Y-102380300D03*
X136238400Y-102380300D03*
X135438400Y-102380300D03*
X134638400Y-102380300D03*
X133838400Y-102380300D03*
X133038400Y-102380300D03*
X132238400Y-102380300D03*
X131438400Y-102380300D03*
X130638400Y-102380300D03*
X129838400Y-102380300D03*
X129038400Y-102380300D03*
X128238400Y-102380300D03*
X127438400Y-102380300D03*
X126638400Y-102380300D03*
X125838400Y-102380300D03*
X125038400Y-102380300D03*
X124238400Y-102380300D03*
X123438400Y-102380300D03*
X122638400Y-102380300D03*
X140238400Y-101580300D03*
X139438400Y-101580300D03*
X138638400Y-101580300D03*
X137838400Y-101580300D03*
X137038400Y-101580300D03*
X136238400Y-101580300D03*
X134638400Y-101580300D03*
X133838400Y-101580300D03*
X133038400Y-101580300D03*
X132238400Y-101580300D03*
X131438400Y-101580300D03*
X130638400Y-101580300D03*
X129838400Y-101580300D03*
X129038400Y-101580300D03*
X128238400Y-101580300D03*
X126638400Y-101580300D03*
X125838400Y-101580300D03*
X125038400Y-101580300D03*
X124238400Y-101580300D03*
X123438400Y-101580300D03*
X122638400Y-101580300D03*
X139438400Y-100780300D03*
X138638400Y-100780300D03*
X137838409Y-100780291D03*
X137038400Y-100780300D03*
X135438400Y-100780300D03*
X134638400Y-100780300D03*
X133038400Y-100780300D03*
X132238400Y-100780300D03*
X130638400Y-100780300D03*
X129838400Y-100780300D03*
X128238400Y-100780300D03*
X127438400Y-100780300D03*
X125838400Y-100780300D03*
X125038400Y-100780300D03*
X124238400Y-100780300D03*
X123438400Y-100780300D03*
X140238400Y-99980300D03*
X139438400Y-99980300D03*
X138638400Y-99980300D03*
X137838409Y-99980293D03*
X136238400Y-99980300D03*
X135438400Y-99980300D03*
X134638400Y-99980300D03*
X133038400Y-99980300D03*
X132238400Y-99980300D03*
X130638400Y-99980300D03*
X129838400Y-99980300D03*
X128238400Y-99980300D03*
X127438400Y-99980300D03*
X126638400Y-99980300D03*
X125038400Y-99980300D03*
X124238400Y-99980300D03*
X123438400Y-99980300D03*
X122638400Y-99980300D03*
X140238400Y-99180300D03*
X139438400Y-99180300D03*
X138638400Y-99180300D03*
X137838400Y-99180300D03*
X137038400Y-99180300D03*
X136238400Y-99180300D03*
X135438400Y-99180300D03*
X134638400Y-99180300D03*
X133038400Y-99180300D03*
X132238400Y-99180300D03*
X130638400Y-99180300D03*
X129838400Y-99180300D03*
X128238400Y-99180300D03*
X127438400Y-99180300D03*
X126638400Y-99180300D03*
X125838400Y-99180300D03*
X125038400Y-99180300D03*
X124238400Y-99180300D03*
X123438400Y-99180300D03*
X122638400Y-99180300D03*
X139438400Y-98380300D03*
X138638400Y-98380300D03*
X137838400Y-98380300D03*
X137038400Y-98380300D03*
X136238400Y-98380300D03*
X135438400Y-98380300D03*
X134638400Y-98380300D03*
X133838400Y-98380300D03*
X133038400Y-98380300D03*
X132238400Y-98380300D03*
X131438400Y-98380300D03*
X130638400Y-98380300D03*
X129838400Y-98380300D03*
X129038400Y-98380300D03*
X128238400Y-98380300D03*
X127438400Y-98380300D03*
X126638400Y-98380300D03*
X125838400Y-98380300D03*
X125038400Y-98380300D03*
X124238400Y-98380300D03*
X123438400Y-98380300D03*
X140238400Y-97580300D03*
X139438400Y-97580300D03*
X138638400Y-97580300D03*
X137838400Y-97580300D03*
X137038400Y-97580300D03*
X136238400Y-97580300D03*
X135438400Y-97580300D03*
X134638400Y-97580300D03*
X133838400Y-97580300D03*
X133038400Y-97580300D03*
X132238400Y-97580300D03*
X131438400Y-97580300D03*
X130638400Y-97580300D03*
X129838400Y-97580300D03*
X129038400Y-97580300D03*
X128238400Y-97580300D03*
X127438400Y-97580300D03*
X126638400Y-97580300D03*
X125838400Y-97580300D03*
X125038400Y-97580300D03*
X124238400Y-97580300D03*
X123438400Y-97580300D03*
X122638400Y-97580300D03*
X140238404Y-114380289D03*
X139438405Y-114380289D03*
X137838400Y-114380300D03*
X137038400Y-114380300D03*
X135438400Y-114380300D03*
X134638400Y-114380300D03*
X133038400Y-114380300D03*
X132238400Y-114380300D03*
X130638398Y-114380289D03*
X129838400Y-114380300D03*
X128238400Y-114380300D03*
X127438400Y-114380300D03*
X125838407Y-114380289D03*
X125038409Y-114380289D03*
X123438412Y-114380289D03*
X122638388Y-114380289D03*
X140238404Y-113580291D03*
X139438405Y-113580291D03*
X138638407Y-113580291D03*
X137838400Y-113580300D03*
X137038400Y-113580300D03*
X136238400Y-113580300D03*
X135438400Y-113580300D03*
X134638400Y-113580300D03*
X133838400Y-113580300D03*
X133038400Y-113580300D03*
X132238400Y-113580300D03*
X131438400Y-113580300D03*
X130638400Y-113580300D03*
X129838400Y-113580300D03*
X129038400Y-113580300D03*
X128238400Y-113580300D03*
X127438400Y-113580300D03*
X126638400Y-113580300D03*
X125838407Y-113580291D03*
X125038409Y-113580291D03*
X124238400Y-113580300D03*
X123438412Y-113580291D03*
X122638388Y-113580291D03*
X139438405Y-112780293D03*
X138638407Y-112780293D03*
X137838409Y-112780293D03*
X137038400Y-112780300D03*
X136238400Y-112780300D03*
X135438400Y-112780300D03*
X134638400Y-112780300D03*
X133838400Y-112780300D03*
X133038400Y-112780300D03*
X132238400Y-112780300D03*
X131438400Y-112780300D03*
X130638400Y-112780300D03*
X129838400Y-112780300D03*
X129038400Y-112780300D03*
X128238400Y-112780300D03*
X127438400Y-112780300D03*
X126638400Y-112780300D03*
X125838400Y-112780300D03*
X125038400Y-112780300D03*
X124238400Y-112780300D03*
X123438400Y-112780300D03*
X140238400Y-96780300D03*
X139438400Y-96780300D03*
X137838400Y-96780300D03*
X137038400Y-96780300D03*
X135438400Y-96780300D03*
X134638400Y-96780300D03*
X133038400Y-96780300D03*
X132238400Y-96780300D03*
X130638400Y-96780300D03*
X129838400Y-96780300D03*
X128238400Y-96780300D03*
X127438400Y-96780300D03*
X125838400Y-96780300D03*
X125038400Y-96780300D03*
X123438400Y-96780300D03*
X122638400Y-96780300D03*
%TD*%
D27*
%TO.C,C11*%
X108835000Y-54950000D03*
X108835000Y-53400000D03*
%TD*%
D28*
%TO.C,C65*%
X154415000Y-131705000D03*
X152865000Y-131705000D03*
%TD*%
D50*
%TO.C,U29*%
X160545099Y-127511199D03*
X160545099Y-128411199D03*
X160545099Y-129311199D03*
X160545099Y-130211199D03*
X160545099Y-131111199D03*
X160545099Y-132011199D03*
X160545099Y-132911199D03*
X160545099Y-133811199D03*
X160545099Y-134711199D03*
X160545099Y-135611199D03*
X160545099Y-136511199D03*
D51*
X162045099Y-138011199D03*
X162945099Y-138011199D03*
X163845099Y-138011199D03*
X164745099Y-138011199D03*
X165645099Y-138011199D03*
X166545099Y-138011199D03*
X167445099Y-138011199D03*
X168345099Y-138011199D03*
X169245099Y-138011199D03*
X170145099Y-138011199D03*
X171045099Y-138011199D03*
D50*
X172545099Y-136511199D03*
X172545099Y-135611199D03*
X172545099Y-134711199D03*
X172545099Y-133811199D03*
X172545099Y-132911199D03*
X172545099Y-132011199D03*
X172545099Y-131111199D03*
X172545099Y-130211199D03*
X172545099Y-129311199D03*
X172545099Y-128411199D03*
X172545099Y-127511199D03*
D51*
X171045099Y-126011199D03*
X170145099Y-126011199D03*
X169245099Y-126011199D03*
X168345099Y-126011199D03*
X167445099Y-126011199D03*
X166545099Y-126011199D03*
X165645099Y-126011199D03*
X164745099Y-126011199D03*
X163845099Y-126011199D03*
X162945099Y-126011199D03*
X162045099Y-126011199D03*
%TD*%
D22*
%TO.C,U24*%
X154539999Y-120189999D03*
X154539999Y-119239999D03*
X154539999Y-118289999D03*
X152219999Y-118289999D03*
X152219999Y-119239999D03*
X152219999Y-120189999D03*
%TD*%
D28*
%TO.C,C75*%
X170190100Y-140941200D03*
X168640100Y-140941200D03*
%TD*%
D26*
%TO.C,R24*%
X97035000Y-82330000D03*
X97035000Y-83980000D03*
%TD*%
%TO.C,R1*%
X90815000Y-93820000D03*
X90815000Y-95470000D03*
%TD*%
D27*
%TO.C,C20*%
X174890000Y-127510000D03*
X174890000Y-125960000D03*
%TD*%
D26*
%TO.C,R2*%
X92445000Y-92070000D03*
X92445000Y-93720000D03*
%TD*%
D19*
%TO.C,Y2*%
X132019999Y-117554999D03*
X136219999Y-117554999D03*
%TD*%
D27*
%TO.C,R19*%
X176720000Y-133150000D03*
X176720000Y-131600000D03*
%TD*%
D18*
%TO.C,C77*%
X158865000Y-144375000D03*
X160415000Y-144375000D03*
%TD*%
D28*
%TO.C,C80*%
X170090100Y-142901200D03*
X168540100Y-142901200D03*
%TD*%
D17*
%TO.C,R93*%
X162030100Y-140941200D03*
X163680100Y-140941200D03*
%TD*%
%TO.C,R21*%
X86340000Y-76025000D03*
X87990000Y-76025000D03*
%TD*%
D52*
%TO.C,Q4*%
X120887500Y-132460000D03*
X120887500Y-130560000D03*
X119012500Y-131510000D03*
%TD*%
D39*
%TO.C,L2*%
X96427500Y-73725000D03*
X94302500Y-73725000D03*
%TD*%
D17*
%TO.C,R94*%
X165340100Y-140931200D03*
X166990100Y-140931200D03*
%TD*%
D53*
%TO.C,Y1*%
X177837499Y-125284999D03*
X177837499Y-129484999D03*
%TD*%
D26*
%TO.C,R90*%
X155140000Y-135980000D03*
X155140000Y-137630000D03*
%TD*%
M02*
